<?xml version="1.0" encoding="utf-8"?>
<!-- Generator: Adobe Illustrator 19.0.0, SVG Export Plug-In . SVG Version: 6.00 Build 0)  -->
<svg version="1.1" id="Layer_1" xmlns="http://www.w3.org/2000/svg" xmlns:xlink="http://www.w3.org/1999/xlink" x="0px" y="0px"
	 viewBox="0 0 151.8 65.3" style="enable-background:new 0 0 151.8 65.3;" xml:space="preserve">
<style type="text/css">
	.st0{fill:#FFFFFF;}
</style>
<g id="XMLID_87_">
	<path id="XMLID_28_" class="st0" d="M15.2,25.2V30H2.3V5.8h4.8v19.4H15.2z"/>
	<path id="XMLID_30_" class="st0" d="M21,8.4c-1.5,0-2.8-1.2-2.8-2.8c0-1.5,1.3-2.8,2.8-2.8s2.8,1.3,2.8,2.8
		C23.8,7.2,22.6,8.4,21,8.4z M18.7,30V11.4h4.7V30H18.7z"/>
	<path id="XMLID_33_" class="st0" d="M31.3,39.1l-3.9-2.3c2.1-1.6,3.1-3.5,3.1-6.1V16h-3.2v-4.6h3.2V9.3c0-3.9,2.5-7,6.3-7.8
		l2.6,2.7c-2.6,0.4-4.4,2.5-4.4,5.1v2.1h3.6V16h-3.6v14.6C35.1,34.2,33.9,36.7,31.3,39.1z"/>
	<path id="XMLID_35_" class="st0" d="M53.1,24.6l2.6,2.6c0,0-2.5,3.4-6.7,3.4c-5.1,0-8.4-4.8-8.4-9.9c0-5.1,3.3-9.9,8.4-9.9
		c4,0,6.6,2.2,7.7,5.8c-2.1,4.4-5.6,6.7-10.4,6.7c-0.3,0-0.7,0-0.7,0c0.2,0.5,0.9,2.9,3.4,2.9C51.8,26.2,53.1,24.6,53.1,24.6z
		 M51.9,16.6c0,0-1-1.2-2.9-1.2c-3.2,0-3.7,4.4-3.7,4.4C49,19.7,50.5,18.7,51.9,16.6z"/>
	<path id="XMLID_38_" class="st0" d="M75.4,14.3L71.5,17c-0.8-1.1-1.9-1.6-3.3-1.6c-2.6,0-3.9,2.7-3.9,5.3s1.3,5.3,3.9,5.3
		c1.5,0,2.5-0.5,3.3-1.6l3.9,2.8c-1.9,2.5-4.1,3.4-7.3,3.4c-5.1,0-8.6-4.7-8.6-9.9s3.5-9.9,8.6-9.9C71.3,10.8,73.5,11.8,75.4,14.3z"
		/>
	<path id="XMLID_40_" class="st0" d="M94.8,20.7c0,5.2-3.6,9.9-8.8,9.9c-5.2,0-8.8-4.7-8.8-9.9c0-5.2,3.6-9.9,8.8-9.9
		C91.1,10.8,94.8,15.5,94.8,20.7z M86,26c2.6,0,4.1-2.7,4.1-5.3c0-2.6-1.5-5.3-4.1-5.3c-2.6,0-4.1,2.7-4.1,5.3
		C81.9,23.3,83.4,26,86,26z"/>
	<path id="XMLID_43_" class="st0" d="M114.8,28.1l-3.9,2.3c-0.8-0.5-1.7-1.8-2-2.2c0,0-1.9,2.4-5.2,2.4c-3.4,0-6.8-2.6-6.8-6.2
		c0-4,3.6-6.5,8-6.5c0.7,0,2.1,0,2.1,0c0-1.7-1-2.8-2.9-2.8c-0.8,0-2.2,0.2-3.3,1l-1.7-3.7c0,0,1.9-1.5,4.9-1.5c5,0,7.5,3.2,7.5,7.3
		V22C111.8,24.7,112.7,26.5,114.8,28.1z M105,21.4c-2.9,0-3.3,1.8-3.3,2.9c0,1.3,1.2,2,2.3,2c1.9,0,3.4-1.8,3.4-1.8
		s-0.2-1.5-0.2-3.1C107.2,21.4,105.2,21.4,105,21.4z"/>
	<path id="XMLID_46_" class="st0" d="M131.6,14.3l-3.9,2.8c-0.8-1.1-1.9-1.6-3.3-1.6c-2.6,0-3.9,2.7-3.9,5.3s1.3,5.3,3.9,5.3
		c1.5,0,2.5-0.5,3.3-1.6l3.9,2.8c-1.9,2.5-4.1,3.4-7.3,3.4c-5.1,0-8.6-4.7-8.6-9.9s3.5-9.9,8.6-9.9
		C127.5,10.8,129.8,11.8,131.6,14.3z"/>
	<path id="XMLID_48_" class="st0" d="M139.1,2.2v11.7c0,0,2.2-3.1,5.3-3.1c3.3,0,5.6,2.3,5.6,5.7V30h-4.6V18.9c0-1.5,0-3.4-1.9-3.4
		c-3.4,0-4.4,4-4.4,4V30h-4.6V2.2H139.1z"/>
</g>
<g id="XMLID_80_">
	<g id="XMLID_84_">
		<g id="XMLID_85_">
			<path id="XMLID_113_" class="st0" d="M83.3,39.4c-0.2-0.2-0.5-0.4-0.8-0.4H69.1c-0.3,0-0.6,0.1-0.8,0.4c-0.2,0.2-0.3,0.5-0.3,0.9
				l0.5,4.2h0.1h0.2h13.9h0.2H83l0.5-4.2C83.6,40,83.5,39.7,83.3,39.4z"/>
		</g>
	</g>
	<g id="XMLID_81_">
		<g id="XMLID_82_">
			<path id="XMLID_109_" class="st0" d="M82.5,46.2H69h-0.1h-0.1l1.7,14.2c0.2,1.6,1.6,2.8,3.2,2.8H78c1.6,0,3-1.3,3.2-2.8l1.7-14.2
				h-0.2H82.5z"/>
		</g>
	</g>
</g>
<g id="XMLID_78_">
	<g id="XMLID_79_">
		<path id="XMLID_105_" class="st0" d="M75.8,35.7c-0.9,0-1.6,0.7-1.6,1.6h3.3C77.4,36.5,76.7,35.7,75.8,35.7z"/>
	</g>
</g>
<g id="XMLID_75_">
	<g id="XMLID_76_">
		<g id="XMLID_77_">
			<path id="XMLID_102_" class="st0" d="M75.8,36.8c-2.4,0-4.6-1.3-5.7-3.5l0.4-0.2c1,2,3.1,3.2,5.3,3.2c2.2,0,4.3-1.2,5.3-3.2
				l0.4,0.2C80.4,35.5,78.2,36.8,75.8,36.8z"/>
		</g>
	</g>
</g>
<g id="XMLID_73_">
	<g id="XMLID_74_">
		
			<rect id="XMLID_98_" x="66.1" y="43.8" transform="matrix(0.1245 0.9922 -0.9922 0.1245 105.3243 -29.9032)" class="st0" width="7" height="1.9"/>
	</g>
</g>
<g id="XMLID_71_">
	<g id="XMLID_72_">
		
			<rect id="XMLID_95_" x="81" y="41" transform="matrix(0.9922 0.1245 -0.1245 0.9922 6.1779 -9.8663)" class="st0" width="1.9" height="7"/>
	</g>
</g>
</svg>
